<?xml version="1.0" encoding="UTF-8"?>
<svg xmlns="http://www.w3.org/2000/svg" xmlns:xlink="http://www.w3.org/1999/xlink" width="600px" height="226px" viewBox="0 0 602 226" version="1.1">
<defs>
<linearGradient id="linear0" gradientUnits="userSpaceOnUse" x1="1559.3298" y1="874.7319" x2="1583.6593" y2="832.5921" gradientTransform="matrix(0.188125,0,0,0.188333,0,0)">
<stop offset="0" style="stop-color:rgb(61.176471%,25.882353%,5.882353%);stop-opacity:1;"/>
<stop offset="0.1576" style="stop-color:rgb(93.333333%,38.823529%,12.941176%);stop-opacity:1;"/>
<stop offset="0.2028" style="stop-color:rgb(93.72549%,40.392157%,12.54902%);stop-opacity:1;"/>
<stop offset="0.2526" style="stop-color:rgb(94.117647%,45.882353%,11.372549%);stop-opacity:1;"/>
<stop offset="0.3045" style="stop-color:rgb(95.294118%,54.509804%,9.411765%);stop-opacity:1;"/>
<stop offset="0.3579" style="stop-color:rgb(96.470588%,66.666667%,6.666667%);stop-opacity:1;"/>
<stop offset="0.412" style="stop-color:rgb(98.431373%,81.960784%,3.137255%);stop-opacity:1;"/>
<stop offset="0.45" style="stop-color:rgb(100%,94.509804%,0.392157%);stop-opacity:1;"/>
<stop offset="0.55" style="stop-color:rgb(100%,94.509804%,0.392157%);stop-opacity:1;"/>
<stop offset="0.5578" style="stop-color:rgb(99.607843%,92.54902%,0.784314%);stop-opacity:1;"/>
<stop offset="0.6334" style="stop-color:rgb(97.647059%,73.333333%,5.098039%);stop-opacity:1;"/>
<stop offset="0.705" style="stop-color:rgb(95.686275%,58.431373%,8.627451%);stop-opacity:1;"/>
<stop offset="0.7708" style="stop-color:rgb(94.509804%,47.45098%,10.980392%);stop-opacity:1;"/>
<stop offset="0.8288" style="stop-color:rgb(93.72549%,41.176471%,12.54902%);stop-opacity:1;"/>
<stop offset="0.8727" style="stop-color:rgb(93.333333%,38.823529%,12.941176%);stop-opacity:1;"/>
<stop offset="1" style="stop-color:rgb(80%,32.54902%,7.058824%);stop-opacity:1;"/>
</linearGradient>
<linearGradient id="linear1" gradientUnits="userSpaceOnUse" x1="1598.2373" y1="808.3895" x2="1640.2537" y2="735.6151" gradientTransform="matrix(0.188125,0,0,0.188333,0,0)">
<stop offset="0" style="stop-color:rgb(61.176471%,25.882353%,5.882353%);stop-opacity:1;"/>
<stop offset="0.1576" style="stop-color:rgb(93.333333%,38.823529%,12.941176%);stop-opacity:1;"/>
<stop offset="0.2028" style="stop-color:rgb(93.72549%,40.392157%,12.54902%);stop-opacity:1;"/>
<stop offset="0.2526" style="stop-color:rgb(94.117647%,45.882353%,11.372549%);stop-opacity:1;"/>
<stop offset="0.3045" style="stop-color:rgb(95.294118%,54.509804%,9.411765%);stop-opacity:1;"/>
<stop offset="0.3579" style="stop-color:rgb(96.470588%,66.666667%,6.666667%);stop-opacity:1;"/>
<stop offset="0.412" style="stop-color:rgb(98.431373%,81.960784%,3.137255%);stop-opacity:1;"/>
<stop offset="0.45" style="stop-color:rgb(100%,94.509804%,0.392157%);stop-opacity:1;"/>
<stop offset="0.55" style="stop-color:rgb(100%,94.509804%,0.392157%);stop-opacity:1;"/>
<stop offset="0.5578" style="stop-color:rgb(99.607843%,92.54902%,0.784314%);stop-opacity:1;"/>
<stop offset="0.6334" style="stop-color:rgb(97.647059%,73.333333%,5.098039%);stop-opacity:1;"/>
<stop offset="0.705" style="stop-color:rgb(95.686275%,58.431373%,8.627451%);stop-opacity:1;"/>
<stop offset="0.7708" style="stop-color:rgb(94.509804%,47.45098%,10.980392%);stop-opacity:1;"/>
<stop offset="0.8288" style="stop-color:rgb(93.72549%,41.176471%,12.54902%);stop-opacity:1;"/>
<stop offset="0.8727" style="stop-color:rgb(93.333333%,38.823529%,12.941176%);stop-opacity:1;"/>
<stop offset="1" style="stop-color:rgb(63.137255%,25.882353%,5.490196%);stop-opacity:1;"/>
</linearGradient>
<linearGradient id="linear2" gradientUnits="userSpaceOnUse" x1="1576.8394" y1="798.9506" x2="1548.3094" y2="809.3347" gradientTransform="matrix(0.188125,0,0,0.188333,0,0)">
<stop offset="0" style="stop-color:rgb(61.176471%,25.882353%,5.882353%);stop-opacity:1;"/>
<stop offset="0.1576" style="stop-color:rgb(93.333333%,38.823529%,12.941176%);stop-opacity:1;"/>
<stop offset="0.2028" style="stop-color:rgb(93.72549%,40.392157%,12.54902%);stop-opacity:1;"/>
<stop offset="0.2526" style="stop-color:rgb(94.117647%,45.882353%,11.372549%);stop-opacity:1;"/>
<stop offset="0.3045" style="stop-color:rgb(95.294118%,54.509804%,9.411765%);stop-opacity:1;"/>
<stop offset="0.3579" style="stop-color:rgb(96.470588%,66.666667%,6.666667%);stop-opacity:1;"/>
<stop offset="0.412" style="stop-color:rgb(98.431373%,81.960784%,3.137255%);stop-opacity:1;"/>
<stop offset="0.45" style="stop-color:rgb(100%,94.509804%,0.392157%);stop-opacity:1;"/>
<stop offset="0.55" style="stop-color:rgb(100%,94.509804%,0.392157%);stop-opacity:1;"/>
<stop offset="0.5578" style="stop-color:rgb(99.607843%,92.54902%,0.784314%);stop-opacity:1;"/>
<stop offset="0.6334" style="stop-color:rgb(97.647059%,73.333333%,5.098039%);stop-opacity:1;"/>
<stop offset="0.705" style="stop-color:rgb(95.686275%,58.431373%,8.627451%);stop-opacity:1;"/>
<stop offset="0.7708" style="stop-color:rgb(94.509804%,47.45098%,10.980392%);stop-opacity:1;"/>
<stop offset="0.8288" style="stop-color:rgb(93.72549%,41.176471%,12.54902%);stop-opacity:1;"/>
<stop offset="0.8727" style="stop-color:rgb(93.333333%,38.823529%,12.941176%);stop-opacity:1;"/>
<stop offset="1" style="stop-color:rgb(63.137255%,25.882353%,5.490196%);stop-opacity:1;"/>
</linearGradient>
<linearGradient id="linear3" gradientUnits="userSpaceOnUse" x1="1549.1783" y1="792.8921" x2="1592.5579" y2="717.7565" gradientTransform="matrix(0.188125,0,0,0.188333,0,0)">
<stop offset="0" style="stop-color:rgb(52.941176%,22.352941%,5.098039%);stop-opacity:1;"/>
<stop offset="0.1576" style="stop-color:rgb(85.098039%,35.294118%,11.764706%);stop-opacity:1;"/>
<stop offset="0.2048" style="stop-color:rgb(85.490196%,36.862745%,11.372549%);stop-opacity:1;"/>
<stop offset="0.2568" style="stop-color:rgb(85.882353%,42.352941%,10.196078%);stop-opacity:1;"/>
<stop offset="0.311" style="stop-color:rgb(87.058824%,50.980392%,8.235294%);stop-opacity:1;"/>
<stop offset="0.3668" style="stop-color:rgb(88.627451%,63.137255%,5.490196%);stop-opacity:1;"/>
<stop offset="0.4233" style="stop-color:rgb(90.588235%,78.431373%,2.352941%);stop-opacity:1;"/>
<stop offset="0.45" style="stop-color:rgb(91.764706%,86.666667%,0.392157%);stop-opacity:1;"/>
<stop offset="0.55" style="stop-color:rgb(91.764706%,86.666667%,0.392157%);stop-opacity:1;"/>
<stop offset="0.6216" style="stop-color:rgb(89.411765%,69.803922%,4.313725%);stop-opacity:1;"/>
<stop offset="0.6964" style="stop-color:rgb(87.45098%,54.901961%,7.45098%);stop-opacity:1;"/>
<stop offset="0.7656" style="stop-color:rgb(86.27451%,43.921569%,9.803922%);stop-opacity:1;"/>
<stop offset="0.8265" style="stop-color:rgb(85.490196%,37.647059%,11.372549%);stop-opacity:1;"/>
<stop offset="0.8727" style="stop-color:rgb(85.098039%,35.294118%,11.764706%);stop-opacity:1;"/>
<stop offset="1" style="stop-color:rgb(54.901961%,22.352941%,4.705882%);stop-opacity:1;"/>
</linearGradient>
<linearGradient id="linear4" gradientUnits="userSpaceOnUse" x1="1624.4344" y1="662.876" x2="1627.9484" y2="642.9479" gradientTransform="matrix(0.188125,0,0,0.188333,0,0)">
<stop offset="0" style="stop-color:rgb(52.941176%,22.352941%,5.098039%);stop-opacity:1;"/>
<stop offset="0.1576" style="stop-color:rgb(85.098039%,35.294118%,11.764706%);stop-opacity:1;"/>
<stop offset="0.2048" style="stop-color:rgb(85.490196%,36.862745%,11.372549%);stop-opacity:1;"/>
<stop offset="0.2568" style="stop-color:rgb(85.882353%,42.352941%,10.196078%);stop-opacity:1;"/>
<stop offset="0.311" style="stop-color:rgb(87.058824%,50.980392%,8.235294%);stop-opacity:1;"/>
<stop offset="0.3668" style="stop-color:rgb(88.627451%,63.137255%,5.490196%);stop-opacity:1;"/>
<stop offset="0.4233" style="stop-color:rgb(90.588235%,78.431373%,2.352941%);stop-opacity:1;"/>
<stop offset="0.45" style="stop-color:rgb(91.764706%,86.666667%,0.392157%);stop-opacity:1;"/>
<stop offset="0.55" style="stop-color:rgb(91.764706%,86.666667%,0.392157%);stop-opacity:1;"/>
<stop offset="0.6216" style="stop-color:rgb(89.411765%,69.803922%,4.313725%);stop-opacity:1;"/>
<stop offset="0.6964" style="stop-color:rgb(87.45098%,54.901961%,7.45098%);stop-opacity:1;"/>
<stop offset="0.7656" style="stop-color:rgb(86.27451%,43.921569%,9.803922%);stop-opacity:1;"/>
<stop offset="0.8265" style="stop-color:rgb(85.490196%,37.647059%,11.372549%);stop-opacity:1;"/>
<stop offset="0.8727" style="stop-color:rgb(85.098039%,35.294118%,11.764706%);stop-opacity:1;"/>
<stop offset="1" style="stop-color:rgb(54.901961%,22.352941%,4.705882%);stop-opacity:1;"/>
</linearGradient>
<linearGradient id="linear5" gradientUnits="userSpaceOnUse" x1="1487.4412" y1="799.3422" x2="1524.3179" y2="735.4698" gradientTransform="matrix(0.188125,0,0,0.188333,0,0)">
<stop offset="0" style="stop-color:rgb(61.176471%,25.882353%,5.882353%);stop-opacity:1;"/>
<stop offset="0.1576" style="stop-color:rgb(93.333333%,38.823529%,12.941176%);stop-opacity:1;"/>
<stop offset="0.2028" style="stop-color:rgb(93.72549%,40.392157%,12.54902%);stop-opacity:1;"/>
<stop offset="0.2526" style="stop-color:rgb(94.117647%,45.882353%,11.372549%);stop-opacity:1;"/>
<stop offset="0.3045" style="stop-color:rgb(95.294118%,54.509804%,9.411765%);stop-opacity:1;"/>
<stop offset="0.3579" style="stop-color:rgb(96.470588%,66.666667%,6.666667%);stop-opacity:1;"/>
<stop offset="0.412" style="stop-color:rgb(98.431373%,81.960784%,3.137255%);stop-opacity:1;"/>
<stop offset="0.45" style="stop-color:rgb(100%,94.509804%,0.392157%);stop-opacity:1;"/>
<stop offset="0.55" style="stop-color:rgb(100%,94.509804%,0.392157%);stop-opacity:1;"/>
<stop offset="0.5578" style="stop-color:rgb(99.607843%,92.54902%,0.784314%);stop-opacity:1;"/>
<stop offset="0.6334" style="stop-color:rgb(97.647059%,73.333333%,5.098039%);stop-opacity:1;"/>
<stop offset="0.705" style="stop-color:rgb(95.686275%,58.431373%,8.627451%);stop-opacity:1;"/>
<stop offset="0.7708" style="stop-color:rgb(94.509804%,47.45098%,10.980392%);stop-opacity:1;"/>
<stop offset="0.8288" style="stop-color:rgb(93.72549%,41.176471%,12.54902%);stop-opacity:1;"/>
<stop offset="0.8727" style="stop-color:rgb(93.333333%,38.823529%,12.941176%);stop-opacity:1;"/>
<stop offset="1" style="stop-color:rgb(63.137255%,25.882353%,5.490196%);stop-opacity:1;"/>
</linearGradient>
<linearGradient id="linear6" gradientUnits="userSpaceOnUse" x1="1612.4711" y1="598.935" x2="1635.709" y2="558.6858" gradientTransform="matrix(0.188125,0,0,0.188333,0,0)">
<stop offset="0" style="stop-color:rgb(61.176471%,25.882353%,5.882353%);stop-opacity:1;"/>
<stop offset="0.1576" style="stop-color:rgb(93.333333%,38.823529%,12.941176%);stop-opacity:1;"/>
<stop offset="0.2028" style="stop-color:rgb(93.72549%,40.392157%,12.54902%);stop-opacity:1;"/>
<stop offset="0.2526" style="stop-color:rgb(94.117647%,45.882353%,11.372549%);stop-opacity:1;"/>
<stop offset="0.3045" style="stop-color:rgb(95.294118%,54.509804%,9.411765%);stop-opacity:1;"/>
<stop offset="0.3579" style="stop-color:rgb(96.470588%,66.666667%,6.666667%);stop-opacity:1;"/>
<stop offset="0.412" style="stop-color:rgb(98.431373%,81.960784%,3.137255%);stop-opacity:1;"/>
<stop offset="0.45" style="stop-color:rgb(100%,94.509804%,0.392157%);stop-opacity:1;"/>
<stop offset="0.55" style="stop-color:rgb(100%,94.509804%,0.392157%);stop-opacity:1;"/>
<stop offset="0.5578" style="stop-color:rgb(99.607843%,92.54902%,0.784314%);stop-opacity:1;"/>
<stop offset="0.6334" style="stop-color:rgb(97.647059%,73.333333%,5.098039%);stop-opacity:1;"/>
<stop offset="0.705" style="stop-color:rgb(95.686275%,58.431373%,8.627451%);stop-opacity:1;"/>
<stop offset="0.7708" style="stop-color:rgb(94.509804%,47.45098%,10.980392%);stop-opacity:1;"/>
<stop offset="0.8288" style="stop-color:rgb(93.72549%,41.176471%,12.54902%);stop-opacity:1;"/>
<stop offset="0.8727" style="stop-color:rgb(93.333333%,38.823529%,12.941176%);stop-opacity:1;"/>
<stop offset="1" style="stop-color:rgb(63.137255%,25.882353%,5.490196%);stop-opacity:1;"/>
</linearGradient>
<linearGradient id="linear7" gradientUnits="userSpaceOnUse" x1="1583.0032" y1="630.2737" x2="1546.0188" y2="630.2737" gradientTransform="matrix(0.188125,0,0,0.188333,0,0)">
<stop offset="0" style="stop-color:rgb(61.176471%,25.882353%,5.882353%);stop-opacity:1;"/>
<stop offset="0.1576" style="stop-color:rgb(93.333333%,38.823529%,12.941176%);stop-opacity:1;"/>
<stop offset="0.2028" style="stop-color:rgb(93.72549%,40.392157%,12.54902%);stop-opacity:1;"/>
<stop offset="0.2526" style="stop-color:rgb(94.117647%,45.882353%,11.372549%);stop-opacity:1;"/>
<stop offset="0.3045" style="stop-color:rgb(95.294118%,54.509804%,9.411765%);stop-opacity:1;"/>
<stop offset="0.3579" style="stop-color:rgb(96.470588%,66.666667%,6.666667%);stop-opacity:1;"/>
<stop offset="0.412" style="stop-color:rgb(98.431373%,81.960784%,3.137255%);stop-opacity:1;"/>
<stop offset="0.45" style="stop-color:rgb(100%,94.509804%,0.392157%);stop-opacity:1;"/>
<stop offset="0.55" style="stop-color:rgb(100%,94.509804%,0.392157%);stop-opacity:1;"/>
<stop offset="0.5578" style="stop-color:rgb(99.607843%,92.54902%,0.784314%);stop-opacity:1;"/>
<stop offset="0.6334" style="stop-color:rgb(97.647059%,73.333333%,5.098039%);stop-opacity:1;"/>
<stop offset="0.705" style="stop-color:rgb(95.686275%,58.431373%,8.627451%);stop-opacity:1;"/>
<stop offset="0.7708" style="stop-color:rgb(94.509804%,47.45098%,10.980392%);stop-opacity:1;"/>
<stop offset="0.8288" style="stop-color:rgb(93.72549%,41.176471%,12.54902%);stop-opacity:1;"/>
<stop offset="0.8727" style="stop-color:rgb(93.333333%,38.823529%,12.941176%);stop-opacity:1;"/>
<stop offset="1" style="stop-color:rgb(63.137255%,25.882353%,5.490196%);stop-opacity:1;"/>
</linearGradient>
<linearGradient id="linear8" gradientUnits="userSpaceOnUse" x1="1623.5178" y1="546.4482" x2="1633.7156" y2="528.7852" gradientTransform="matrix(0.188125,0,0,0.188333,0,0)">
<stop offset="0" style="stop-color:rgb(63.137255%,25.882353%,5.490196%);stop-opacity:1;"/>
<stop offset="0.1273" style="stop-color:rgb(93.333333%,38.823529%,12.941176%);stop-opacity:1;"/>
<stop offset="0.1712" style="stop-color:rgb(93.72549%,41.176471%,12.54902%);stop-opacity:1;"/>
<stop offset="0.2292" style="stop-color:rgb(94.509804%,47.45098%,10.980392%);stop-opacity:1;"/>
<stop offset="0.295" style="stop-color:rgb(95.686275%,58.431373%,8.627451%);stop-opacity:1;"/>
<stop offset="0.3666" style="stop-color:rgb(97.647059%,73.333333%,5.098039%);stop-opacity:1;"/>
<stop offset="0.4422" style="stop-color:rgb(99.607843%,92.54902%,0.784314%);stop-opacity:1;"/>
<stop offset="0.45" style="stop-color:rgb(100%,94.509804%,0.392157%);stop-opacity:1;"/>
<stop offset="0.55" style="stop-color:rgb(100%,94.509804%,0.392157%);stop-opacity:1;"/>
<stop offset="0.588" style="stop-color:rgb(98.431373%,81.960784%,3.137255%);stop-opacity:1;"/>
<stop offset="0.6421" style="stop-color:rgb(96.470588%,66.666667%,6.666667%);stop-opacity:1;"/>
<stop offset="0.6955" style="stop-color:rgb(95.294118%,54.509804%,9.411765%);stop-opacity:1;"/>
<stop offset="0.7474" style="stop-color:rgb(94.117647%,45.882353%,11.372549%);stop-opacity:1;"/>
<stop offset="0.7972" style="stop-color:rgb(93.72549%,40.392157%,12.54902%);stop-opacity:1;"/>
<stop offset="0.8424" style="stop-color:rgb(93.333333%,38.823529%,12.941176%);stop-opacity:1;"/>
</linearGradient>
<linearGradient id="linear9" gradientUnits="userSpaceOnUse" x1="1558.0356" y1="625.6428" x2="1594.662" y2="562.204" gradientTransform="matrix(0.188125,0,0,0.188333,0,0)">
<stop offset="0" style="stop-color:rgb(52.941176%,22.352941%,5.098039%);stop-opacity:1;"/>
<stop offset="0.1576" style="stop-color:rgb(85.098039%,35.294118%,11.764706%);stop-opacity:1;"/>
<stop offset="0.2048" style="stop-color:rgb(85.490196%,36.862745%,11.372549%);stop-opacity:1;"/>
<stop offset="0.2568" style="stop-color:rgb(85.882353%,42.352941%,10.196078%);stop-opacity:1;"/>
<stop offset="0.311" style="stop-color:rgb(87.058824%,50.980392%,8.235294%);stop-opacity:1;"/>
<stop offset="0.3668" style="stop-color:rgb(88.627451%,63.137255%,5.490196%);stop-opacity:1;"/>
<stop offset="0.4233" style="stop-color:rgb(90.588235%,78.431373%,2.352941%);stop-opacity:1;"/>
<stop offset="0.45" style="stop-color:rgb(91.764706%,86.666667%,0.392157%);stop-opacity:1;"/>
<stop offset="0.55" style="stop-color:rgb(91.764706%,86.666667%,0.392157%);stop-opacity:1;"/>
<stop offset="0.6216" style="stop-color:rgb(89.411765%,69.803922%,4.313725%);stop-opacity:1;"/>
<stop offset="0.6964" style="stop-color:rgb(87.45098%,54.901961%,7.45098%);stop-opacity:1;"/>
<stop offset="0.7656" style="stop-color:rgb(86.27451%,43.921569%,9.803922%);stop-opacity:1;"/>
<stop offset="0.8265" style="stop-color:rgb(85.490196%,37.647059%,11.372549%);stop-opacity:1;"/>
<stop offset="0.8727" style="stop-color:rgb(85.098039%,35.294118%,11.764706%);stop-opacity:1;"/>
<stop offset="1" style="stop-color:rgb(54.901961%,22.352941%,4.705882%);stop-opacity:1;"/>
</linearGradient>
<linearGradient id="linear10" gradientUnits="userSpaceOnUse" x1="1565.6129" y1="526.4412" x2="1578.2894" y2="504.4847" gradientTransform="matrix(0.188125,0,0,0.188333,0,0)">
<stop offset="0.1576" style="stop-color:rgb(93.333333%,38.823529%,12.941176%);stop-opacity:1;"/>
<stop offset="0.2028" style="stop-color:rgb(93.72549%,40.392157%,12.54902%);stop-opacity:1;"/>
<stop offset="0.2526" style="stop-color:rgb(94.117647%,45.882353%,11.372549%);stop-opacity:1;"/>
<stop offset="0.3045" style="stop-color:rgb(95.294118%,54.509804%,9.411765%);stop-opacity:1;"/>
<stop offset="0.3579" style="stop-color:rgb(96.470588%,66.666667%,6.666667%);stop-opacity:1;"/>
<stop offset="0.412" style="stop-color:rgb(98.431373%,81.960784%,3.137255%);stop-opacity:1;"/>
<stop offset="0.45" style="stop-color:rgb(100%,94.509804%,0.392157%);stop-opacity:1;"/>
<stop offset="0.55" style="stop-color:rgb(100%,94.509804%,0.392157%);stop-opacity:1;"/>
<stop offset="0.5578" style="stop-color:rgb(99.607843%,92.54902%,0.784314%);stop-opacity:1;"/>
<stop offset="0.6334" style="stop-color:rgb(97.647059%,73.333333%,5.098039%);stop-opacity:1;"/>
<stop offset="0.705" style="stop-color:rgb(95.686275%,58.431373%,8.627451%);stop-opacity:1;"/>
<stop offset="0.7708" style="stop-color:rgb(94.509804%,47.45098%,10.980392%);stop-opacity:1;"/>
<stop offset="0.8288" style="stop-color:rgb(93.72549%,41.176471%,12.54902%);stop-opacity:1;"/>
<stop offset="0.8727" style="stop-color:rgb(93.333333%,38.823529%,12.941176%);stop-opacity:1;"/>
</linearGradient>
<linearGradient id="linear11" gradientUnits="userSpaceOnUse" x1="1577.9314" y1="505.8611" x2="1584.1335" y2="495.9355" gradientTransform="matrix(0.188125,0,0,0.188333,0,0)">
<stop offset="0.1187" style="stop-color:rgb(93.333333%,38.823529%,12.941176%);stop-opacity:1;"/>
<stop offset="0.1699" style="stop-color:rgb(93.72549%,40.392157%,12.54902%);stop-opacity:1;"/>
<stop offset="0.2263" style="stop-color:rgb(94.117647%,45.882353%,11.372549%);stop-opacity:1;"/>
<stop offset="0.2851" style="stop-color:rgb(95.294118%,54.509804%,9.411765%);stop-opacity:1;"/>
<stop offset="0.3457" style="stop-color:rgb(96.470588%,66.666667%,6.666667%);stop-opacity:1;"/>
<stop offset="0.4069" style="stop-color:rgb(98.431373%,81.960784%,3.137255%);stop-opacity:1;"/>
<stop offset="0.45" style="stop-color:rgb(100%,94.509804%,0.392157%);stop-opacity:1;"/>
<stop offset="0.55" style="stop-color:rgb(100%,94.509804%,0.392157%);stop-opacity:1;"/>
<stop offset="0.5609" style="stop-color:rgb(99.607843%,92.54902%,0.784314%);stop-opacity:1;"/>
<stop offset="0.6663" style="stop-color:rgb(97.647059%,73.333333%,5.098039%);stop-opacity:1;"/>
<stop offset="0.7661" style="stop-color:rgb(95.686275%,58.431373%,8.627451%);stop-opacity:1;"/>
<stop offset="0.8579" style="stop-color:rgb(94.509804%,47.45098%,10.980392%);stop-opacity:1;"/>
<stop offset="0.9387" style="stop-color:rgb(93.72549%,41.176471%,12.54902%);stop-opacity:1;"/>
<stop offset="1" style="stop-color:rgb(93.333333%,38.823529%,12.941176%);stop-opacity:1;"/>
</linearGradient>
<linearGradient id="linear12" gradientUnits="userSpaceOnUse" x1="1497.5564" y1="697.4888" x2="1688.1479" y2="697.4888" gradientTransform="matrix(0.188125,0,0,0.188333,0,0)">
<stop offset="0" style="stop-color:rgb(61.176471%,25.882353%,5.882353%);stop-opacity:1;"/>
<stop offset="0.1576" style="stop-color:rgb(93.333333%,38.823529%,12.941176%);stop-opacity:1;"/>
<stop offset="0.2028" style="stop-color:rgb(93.72549%,40.392157%,12.54902%);stop-opacity:1;"/>
<stop offset="0.2526" style="stop-color:rgb(94.117647%,45.882353%,11.372549%);stop-opacity:1;"/>
<stop offset="0.3045" style="stop-color:rgb(95.294118%,54.509804%,9.411765%);stop-opacity:1;"/>
<stop offset="0.3579" style="stop-color:rgb(96.470588%,66.666667%,6.666667%);stop-opacity:1;"/>
<stop offset="0.412" style="stop-color:rgb(98.431373%,81.960784%,3.137255%);stop-opacity:1;"/>
<stop offset="0.45" style="stop-color:rgb(100%,94.509804%,0.392157%);stop-opacity:1;"/>
<stop offset="0.55" style="stop-color:rgb(100%,94.509804%,0.392157%);stop-opacity:1;"/>
<stop offset="0.5578" style="stop-color:rgb(99.607843%,92.54902%,0.784314%);stop-opacity:1;"/>
<stop offset="0.6334" style="stop-color:rgb(97.647059%,73.333333%,5.098039%);stop-opacity:1;"/>
<stop offset="0.705" style="stop-color:rgb(95.686275%,58.431373%,8.627451%);stop-opacity:1;"/>
<stop offset="0.7708" style="stop-color:rgb(94.509804%,47.45098%,10.980392%);stop-opacity:1;"/>
<stop offset="0.8288" style="stop-color:rgb(93.72549%,41.176471%,12.54902%);stop-opacity:1;"/>
<stop offset="0.8727" style="stop-color:rgb(93.333333%,38.823529%,12.941176%);stop-opacity:1;"/>
<stop offset="1" style="stop-color:rgb(63.137255%,25.882353%,5.490196%);stop-opacity:1;"/>
</linearGradient>
<linearGradient id="linear13" gradientUnits="userSpaceOnUse" x1="1493.0237" y1="666.604" x2="1572.6781" y2="528.6385" gradientTransform="matrix(0.188125,0,0,0.188333,0,0)">
<stop offset="0" style="stop-color:rgb(61.176471%,25.882353%,5.882353%);stop-opacity:1;"/>
<stop offset="0.1576" style="stop-color:rgb(93.333333%,38.823529%,12.941176%);stop-opacity:1;"/>
<stop offset="0.2028" style="stop-color:rgb(93.72549%,40.392157%,12.54902%);stop-opacity:1;"/>
<stop offset="0.2526" style="stop-color:rgb(94.117647%,45.882353%,11.372549%);stop-opacity:1;"/>
<stop offset="0.3045" style="stop-color:rgb(95.294118%,54.509804%,9.411765%);stop-opacity:1;"/>
<stop offset="0.3579" style="stop-color:rgb(96.470588%,66.666667%,6.666667%);stop-opacity:1;"/>
<stop offset="0.412" style="stop-color:rgb(98.431373%,81.960784%,3.137255%);stop-opacity:1;"/>
<stop offset="0.45" style="stop-color:rgb(100%,94.509804%,0.392157%);stop-opacity:1;"/>
<stop offset="0.55" style="stop-color:rgb(100%,94.509804%,0.392157%);stop-opacity:1;"/>
<stop offset="0.5578" style="stop-color:rgb(99.607843%,92.54902%,0.784314%);stop-opacity:1;"/>
<stop offset="0.6334" style="stop-color:rgb(97.647059%,73.333333%,5.098039%);stop-opacity:1;"/>
<stop offset="0.705" style="stop-color:rgb(95.686275%,58.431373%,8.627451%);stop-opacity:1;"/>
<stop offset="0.7708" style="stop-color:rgb(94.509804%,47.45098%,10.980392%);stop-opacity:1;"/>
<stop offset="0.8288" style="stop-color:rgb(93.72549%,41.176471%,12.54902%);stop-opacity:1;"/>
<stop offset="0.8727" style="stop-color:rgb(93.333333%,38.823529%,12.941176%);stop-opacity:1;"/>
<stop offset="1" style="stop-color:rgb(80%,32.54902%,7.058824%);stop-opacity:1;"/>
</linearGradient>
</defs>
<g id="surface1">
<path style=" stroke:none;fill-rule:nonzero;fill:rgb(13.72549%,12.156863%,12.54902%);fill-opacity:1;" d="M 166.730469 121.085938 L 195.949219 121.085938 L 195.949219 129.761719 L 224.988281 113 L 195.949219 96.238281 L 195.949219 104.914062 L 166.730469 104.914062 Z M 166.730469 121.085938 "/>
<path style=" stroke:none;fill-rule:nonzero;fill:rgb(13.72549%,12.156863%,12.54902%);fill-opacity:1;" d="M 377.796875 121.085938 L 407.015625 121.085938 L 407.015625 129.761719 L 436.054688 113 L 407.015625 96.238281 L 407.015625 104.914062 L 377.796875 104.914062 Z M 377.796875 121.085938 "/>
<path style="fill-rule:nonzero;fill:rgb(59.607843%,59.607843%,59.607843%);fill-opacity:1;stroke-width:0.0938;stroke-linecap:butt;stroke-linejoin:miter;stroke:rgb(59.607843%,59.607843%,59.607843%);stroke-opacity:1;stroke-miterlimit:4;" d="M 401.391196 256.464325 C 471.324751 252.93833 542.130399 268.867533 603.612957 302.426715 C 665.739203 336.151825 718.189369 387.361726 753.384551 448.651825 C 790.344684 512.576051 808.01495 587.389381 803.799834 661.082688 C 800.664452 721.252765 782.931894 780.593197 752.616279 832.653485 C 716.694352 894.669524 663.060631 946.232024 599.667774 979.6875 C 563.725083 998.707135 524.730066 1011.919248 484.613787 1018.660122 C 416.818937 1030.026272 345.930233 1023.160951 281.831395 998.230088 C 222.321429 975.290376 168.833056 937.085177 127.616279 888.447179 C 82.018272 834.872788 51.495017 768.56333 40.946844 698.997511 C 33.36794 649.550608 35.319767 598.631084 47.030731 549.993086 C 57.246678 507.390763 74.875415 466.572179 98.94103 429.964049 C 134.115449 376.037058 183.098007 331.19469 239.950166 300.954093 C 289.597176 274.384679 345.182724 259.160675 401.391196 256.464325 M 390.490033 264.65708 C 333.679402 269.220133 277.927741 286.725664 228.924419 315.86698 C 171.366279 349.840985 123.151993 399.412334 90.843023 457.923119 C 48.421927 533.960177 34.156977 624.972345 50.539867 710.425885 C 63.019103 777.067201 94.227575 840.016593 139.431063 890.500553 C 181.436877 937.665929 235.423588 974.045907 294.995847 995.01521 C 357.724252 1017.270465 426.41196 1022.289823 491.756645 1009.699945 C 535.02907 1001.362002 576.827243 985.329093 614.555648 962.534569 C 684.094684 920.782633 739.472591 856.00802 769.663621 780.696903 C 797.487542 711.919248 804.13206 634.824392 788.787375 562.251106 C 775 496.045354 742.711794 433.863385 696.677741 384.333518 C 651.681894 335.633296 593.625415 299.066648 530.149502 279.839602 C 485.091362 265.963772 437.437708 261.110343 390.490033 264.65708 Z M 390.490033 264.65708 " transform="matrix(0.188125,0,0,0.188333,0,0)"/>
<path style="fill-rule:nonzero;fill:rgb(59.607843%,59.607843%,59.607843%);fill-opacity:1;stroke-width:0.0938;stroke-linecap:butt;stroke-linejoin:miter;stroke:rgb(59.607843%,59.607843%,59.607843%);stroke-opacity:1;stroke-miterlimit:4;" d="M 2758.409468 256.464325 C 2800.913621 254.431692 2843.791528 259.305863 2884.67608 271.273507 C 2951.349668 290.521294 3012.396179 328.539823 3059.385382 379.583794 C 3109.281561 433.490044 3143.272425 501.956582 3155.585548 574.40542 C 3169.518272 654.528485 3157.371262 739.027931 3120.722591 811.704923 C 3090.614618 871.978706 3044.331395 924.038993 2988.019103 960.999723 C 2922.819767 1004.141316 2844.10299 1026.355088 2765.988372 1023.762445 C 2688.745847 1021.875 2612.375415 995.637445 2550.249169 949.75802 C 2483.824751 901.244469 2433.700166 830.869746 2409.862957 752.136338 C 2390.386213 688.440265 2387.977575 619.683352 2402.7201 554.763551 C 2415.697674 497.352046 2442.213455 443.072456 2479.48505 397.504148 C 2533.9701 330.28208 2611.814784 282.307799 2696.57392 264.511892 C 2716.901993 260.114768 2737.624585 257.480642 2758.409468 256.464325 M 2747.487542 264.636338 C 2707.246678 267.975664 2667.483389 277.454369 2630.336379 293.32135 C 2585.610465 312.25802 2544.684385 340.009679 2510.423588 374.419248 C 2472.840532 412.105918 2443.334718 457.840155 2424.667774 507.701881 C 2401.557309 569.074945 2395.016611 636.545907 2405.710133 701.237555 C 2414.86711 757.446073 2437.105482 811.456029 2470.16196 857.833241 C 2488.517442 883.697456 2510.153654 907.21792 2534.406146 927.647954 C 2590.490033 975.248894 2660.859635 1005.779867 2733.990864 1013.972622 C 2813.766611 1023.368363 2896.407807 1006.339878 2965.801495 965.81167 C 3026.183555 930.904314 3076.495017 878.864768 3109.343854 817.325774 C 3148.567276 744.420631 3162.437708 658.303374 3148.33887 576.74917 C 3136.233389 504.051438 3101.806478 435.356748 3051.162791 381.865321 C 3004.900332 332.646571 2945.16196 296.183628 2880.149502 277.848451 C 2837.167774 265.528208 2792.026578 261.338496 2747.487542 264.636338 Z M 2747.487542 264.636338 " transform="matrix(0.188125,0,0,0.188333,0,0)"/>
<path style="fill-rule:nonzero;fill:rgb(0%,0%,0%);fill-opacity:1;stroke-width:0.0938;stroke-linecap:butt;stroke-linejoin:miter;stroke:rgb(0%,0%,0%);stroke-opacity:1;stroke-miterlimit:4;" d="M 1236.856312 432.079646 C 1351.225083 378.028208 1465.635382 324.038993 1580.004153 269.966814 C 1694.331395 324.059735 1808.741694 378.028208 1923.110465 432.079646 C 1923.048173 440.915376 1923.318106 449.751106 1922.944352 458.586836 C 1694.289867 458.503872 1465.656146 458.503872 1237.001661 458.586836 C 1236.690199 449.751106 1236.918605 440.915376 1236.856312 432.079646 Z M 1236.856312 432.079646 " transform="matrix(0.188125,0,0,0.188333,0,0)"/>
<path style="fill-rule:nonzero;fill:rgb(59.607843%,59.607843%,59.607843%);fill-opacity:1;stroke-width:0.0938;stroke-linecap:butt;stroke-linejoin:miter;stroke:rgb(59.607843%,59.607843%,59.607843%);stroke-opacity:1;stroke-miterlimit:4;" d="M 392.483389 291.620575 C 437.063953 288.488662 482.288206 293.425055 524.916944 307.03125 C 594.310631 328.747235 656.146179 373.133296 699.730066 431.270741 C 722.840532 462.07135 740.843023 496.709071 752.678571 533.358684 C 775.436047 603.339325 775.415282 680.496405 752.429402 750.394082 C 736.108804 800.732854 707.994186 847.151549 671.179402 885.149336 C 634.447674 923.313053 588.953488 953.076604 539.140365 971.162887 C 477.533223 993.729259 409.551495 998.271571 345.41113 984.603153 C 282.807309 971.370299 224.086379 940.38302 177.782392 896.225111 C 126.993355 848.375277 90.92608 785.031803 76.225083 716.772677 C 59.198505 639.470409 69.123754 556.443584 104.568106 485.591814 C 128.259967 437.866427 163.039867 395.74115 205.29485 363.260509 C 258.845515 321.674502 324.896179 296.681416 392.483389 291.620575 M 401.453488 298.610343 C 362.624585 300.705199 324.065615 309.18833 288.122924 324.080476 C 231.789867 347.206858 182.059801 385.826881 145.286545 434.298949 C 118.04402 469.994469 98.068937 511.207135 86.710963 554.659845 C 66.0299 633.35177 74.418605 719.386062 110.527409 792.394912 C 142.607973 858.144358 196.407807 912.98396 261.399502 946.5224 C 317.254983 975.560011 381.270764 988.585454 444.040698 983.856471 C 506.333056 979.438606 567.254983 957.432246 618.04402 921.073009 C 659.655316 891.288717 694.663621 852.233131 719.45598 807.411504 C 753.633721 745.913993 767.940199 673.714049 760.112126 603.837113 C 752.7201 535.329093 724.003322 469.268529 678.696013 417.332688 C 633.513289 364.712389 572.009967 326.299779 504.817276 309.126106 C 471.158638 300.394082 436.171096 297.054757 401.453488 298.610343 Z M 401.453488 298.610343 " transform="matrix(0.188125,0,0,0.188333,0,0)"/>
<path style="fill-rule:nonzero;fill:rgb(59.607843%,59.607843%,59.607843%);fill-opacity:1;stroke-width:0.0938;stroke-linecap:butt;stroke-linejoin:miter;stroke:rgb(59.607843%,59.607843%,59.607843%);stroke-opacity:1;stroke-miterlimit:4;" d="M 2757.329734 291.309458 C 2835.73505 286.66344 2915.406977 309.955752 2979.215116 355.731471 C 3035.73505 396.155973 3080.170266 453.42229 3104.339701 518.632467 C 3133.575581 596.245852 3133.866279 684.333518 3105.170266 762.133573 C 3081.083887 828.484513 3036.08804 886.808628 2978.633721 927.689436 C 2915.365449 972.925885 2836.627907 995.90708 2758.9701 991.883296 C 2685.195183 988.7099 2612.728405 961.165653 2555.440199 914.539546 C 2527.637043 892.056139 2503.301495 865.300055 2483.430233 835.598728 C 2449.024086 783.911781 2428.592193 722.95354 2425.519103 660.916759 C 2421.781561 597.697732 2435.797342 533.503872 2465.490033 477.564989 C 2489.555648 432.017423 2523.920266 392.028485 2565.012458 361.020465 C 2620.203488 319.268529 2688.143688 294.420631 2757.329734 291.309458 M 2757.475083 298.631084 C 2707.890365 301.389657 2658.887043 314.746958 2615.053987 338.122235 C 2571.241694 361.310841 2532.703488 394.227046 2502.616279 433.573009 C 2470.224252 475.843473 2447.944352 525.850387 2438.268272 578.242533 C 2426.827243 639.636338 2432.246678 704.162058 2454.401993 762.589878 C 2481.976744 836.324668 2536.046512 899.585177 2604.173588 938.868916 C 2634.385382 956.353706 2667.317276 969.150996 2701.391196 976.680033 C 2748.401163 987.112832 2797.591362 987.44469 2844.767442 977.800055 C 2880.149502 970.540653 2914.348007 957.639657 2945.701827 939.740044 C 3010.631229 902.675608 3063.039867 843.978153 3092.026578 774.993086 C 3123.982558 699.868639 3127.574751 613.253595 3102.325581 535.64021 C 3091.673588 502.931416 3076.142027 471.81969 3056.25 443.736173 C 3014.742525 385.038717 2954.609635 339.532633 2886.399502 316.551438 C 2845.099668 302.364491 2801.05897 296.494746 2757.475083 298.631084 Z M 2757.475083 298.631084 " transform="matrix(0.188125,0,0,0.188333,0,0)"/>
<path style="fill-rule:nonzero;fill:rgb(74.901961%,74.901961%,74.901961%);fill-opacity:1;stroke-width:0.0938;stroke-linecap:butt;stroke-linejoin:miter;stroke:rgb(74.901961%,74.901961%,74.901961%);stroke-opacity:1;stroke-miterlimit:4;" d="M 422.17608 404.535398 C 441.63206 404.348728 460.963455 410.197732 477.346346 420.651272 C 503.010797 436.974558 521.200166 463.772124 529.069767 492.975664 C 539.929402 532.466814 532.703488 577.060288 508.01495 610.017976 C 490.759967 633.517699 464.202658 650.732854 434.987542 654.134403 C 415.199336 656.644082 394.70515 653.18031 376.931063 644.095686 C 350.228405 630.696903 329.962625 606.139381 319.642857 578.304757 C 305.253322 539.975111 308.741694 495.132743 329.858804 459.91427 C 344.725914 434.796737 369.040698 414.781527 397.591362 407.584347 C 405.627076 405.634679 413.891196 404.514657 422.17608 404.535398 Z M 422.17608 404.535398 " transform="matrix(0.188125,0,0,0.188333,0,0)"/>
<path style="fill-rule:nonzero;fill:rgb(74.901961%,74.901961%,74.901961%);fill-opacity:1;stroke-width:0.0938;stroke-linecap:butt;stroke-linejoin:miter;stroke:rgb(74.901961%,74.901961%,74.901961%);stroke-opacity:1;stroke-miterlimit:4;" d="M 2765.386213 405.448009 C 2784.551495 402.959071 2804.505814 405.65542 2822.009967 414.014104 C 2848.359635 426.251383 2868.812292 449.398507 2880.004153 475.988662 C 2895.888704 513.46792 2894.227575 558.061394 2874.958472 594.005808 C 2861.44103 619.621128 2838.579734 640.735619 2810.880399 649.882467 C 2789.86711 656.768529 2766.569767 656.644082 2745.701827 649.21875 C 2719.206811 639.84375 2697.2799 619.579646 2684.07392 594.9599 C 2664.057309 558.331029 2662.416944 512.410122 2679.23588 474.287887 C 2690.490033 448.506637 2710.548173 426.230642 2736.129568 414.159292 C 2745.369601 409.824392 2755.253322 406.837666 2765.386213 405.448009 Z M 2765.386213 405.448009 " transform="matrix(0.188125,0,0,0.188333,0,0)"/>
<path style="fill-rule:nonzero;fill:rgb(0%,0%,0%);fill-opacity:1;stroke-width:0.0938;stroke-linecap:butt;stroke-linejoin:miter;stroke:rgb(0%,0%,0%);stroke-opacity:1;stroke-miterlimit:4;" d="M 1303.031561 470.678927 C 1487.686877 470.616704 1672.321429 470.616704 1856.95598 470.678927 C 1856.789867 485.094027 1856.893688 499.529867 1856.893688 513.944967 C 1745.265781 514.173119 1633.637874 513.965708 1522.009967 514.048673 C 1449.024086 513.965708 1376.05897 514.173119 1303.07309 513.924226 C 1303.093854 499.529867 1303.197674 485.094027 1303.031561 470.678927 Z M 1303.031561 470.678927 " transform="matrix(0.188125,0,0,0.188333,0,0)"/>
<path style="fill-rule:nonzero;fill:rgb(0%,0%,0%);fill-opacity:1;stroke-width:0.0938;stroke-linecap:butt;stroke-linejoin:miter;stroke:rgb(0%,0%,0%);stroke-opacity:1;stroke-miterlimit:4;" d="M 1328.301495 526.182246 C 1349.190199 526.140763 1370.05814 526.140763 1390.946844 526.182246 C 1394.144518 638.495575 1397.446013 750.808905 1400.539867 863.101493 C 1373.650332 863.080752 1346.740033 863.101493 1319.871262 863.101493 C 1322.757475 750.788164 1325.539867 638.495575 1328.301495 526.182246 Z M 1328.301495 526.182246 " transform="matrix(0.188125,0,0,0.188333,0,0)"/>
<path style="fill-rule:nonzero;fill:rgb(0%,0%,0%);fill-opacity:1;stroke-width:0.0938;stroke-linecap:butt;stroke-linejoin:miter;stroke:rgb(0%,0%,0%);stroke-opacity:1;stroke-miterlimit:4;" d="M 1767.836379 526.140763 C 1788.725083 526.202987 1809.613787 526.099281 1830.523256 526.202987 C 1833.596346 638.495575 1836.856312 750.808905 1840.116279 863.101493 C 1813.226744 863.122235 1786.357973 863.101493 1759.468439 863.122235 C 1762.14701 750.788164 1765.074751 638.474834 1767.836379 526.140763 Z M 1767.836379 526.140763 " transform="matrix(0.188125,0,0,0.188333,0,0)"/>
<path style="fill-rule:nonzero;fill:rgb(74.901961%,74.901961%,74.901961%);fill-opacity:1;stroke-width:0.0938;stroke-linecap:butt;stroke-linejoin:miter;stroke:rgb(74.901961%,74.901961%,74.901961%);stroke-opacity:1;stroke-miterlimit:4;" d="M 465.884551 678.920077 C 468.127076 675.394082 470.245017 671.785122 472.88206 668.549502 C 510.963455 687.631361 548.899502 707.003595 586.960133 726.106195 C 598.193522 731.810011 609.509967 737.410122 620.639535 743.300608 C 620.51495 762.569137 621.553156 781.796184 621.407807 801.043971 C 621.968439 814.027931 622.342193 827.011892 622.362957 840.016593 C 622.196844 853.000553 623.504983 865.963772 623.151993 878.968473 C 487.022425 878.947732 350.892857 878.968473 214.784053 878.968473 C 214.493355 873.202434 215.053987 867.457135 215.469269 861.732577 C 215.92608 841.800332 217.379568 821.93031 217.815615 802.018805 C 219.123754 783.517699 219.040698 764.933628 220.452658 746.453263 C 276.287375 721.169801 332.101329 695.886338 388.019103 670.789546 C 401.66113 692.609237 414.86711 714.740044 427.325581 737.264934 C 430.606312 734.091538 432.745017 730.047013 435.278239 726.292865 C 445.535714 710.550332 455.585548 694.662611 465.884551 678.920077 Z M 465.884551 678.920077 " transform="matrix(0.188125,0,0,0.188333,0,0)"/>
<path style="fill-rule:nonzero;fill:rgb(74.901961%,74.901961%,74.901961%);fill-opacity:1;stroke-width:0.0938;stroke-linecap:butt;stroke-linejoin:miter;stroke:rgb(74.901961%,74.901961%,74.901961%);stroke-opacity:1;stroke-miterlimit:4;" d="M 2828.301495 670.3125 C 2829.173588 668.030973 2831.457641 669.316925 2832.994186 670.084347 C 2880.980066 694.579646 2929.152824 718.639381 2977.159468 743.072456 C 2977.595515 751.016316 2977.180233 758.960177 2977.491694 766.883296 C 2978.322259 781.920631 2978.301495 796.999447 2978.446844 812.057522 C 2979.069767 825.684458 2979.381229 839.352876 2979.360465 853.000553 C 2979.215116 861.670354 2980.274086 870.277931 2980.004153 878.926991 C 2866.673588 878.989215 2753.322259 878.947732 2639.991694 878.968473 C 2617.08887 878.844027 2594.144518 879.196626 2571.22093 878.761062 C 2573.58804 834.644635 2575.041528 790.486726 2577.221761 746.370299 C 2625.290698 724.75802 2673.297342 703.000553 2721.324751 681.326051 C 2729.194352 678.028208 2736.710963 673.776272 2744.829734 671.121405 C 2746.906146 672.780697 2747.757475 675.560011 2749.231728 677.758573 C 2761.150332 697.441925 2773.089701 717.125277 2784.198505 737.285675 C 2789.26495 731.498894 2792.960963 724.654314 2797.2799 718.286781 C 2807.599668 702.295354 2817.815615 686.200221 2828.301495 670.3125 Z M 2828.301495 670.3125 " transform="matrix(0.188125,0,0,0.188333,0,0)"/>
<path style="fill-rule:nonzero;fill:rgb(0%,0%,0%);fill-opacity:1;stroke-width:0.0938;stroke-linecap:butt;stroke-linejoin:miter;stroke:rgb(0%,0%,0%);stroke-opacity:1;stroke-miterlimit:4;" d="M 1269.289867 875.214325 C 1476.432724 875.172843 1683.575581 875.172843 1890.718439 875.214325 C 1890.593854 889.629425 1890.697674 904.044524 1890.656146 918.459624 C 1903.07309 918.501106 1915.490033 918.501106 1927.886213 918.459624 C 1927.844684 932.916206 1927.844684 947.372788 1927.886213 961.829369 C 1939.929402 961.829369 1951.972591 961.808628 1964.015781 961.829369 C 1964.036545 976.285951 1964.036545 990.742533 1964.015781 1005.199115 C 1707.994186 1005.240597 1451.993355 1005.219856 1195.992525 1005.219856 C 1195.950997 990.742533 1195.930233 976.285951 1195.992525 961.829369 C 1208.035714 961.808628 1220.078904 961.808628 1232.122093 961.829369 C 1232.142857 947.372788 1232.142857 932.916206 1232.101329 918.459624 C 1244.518272 918.521847 1256.935216 918.501106 1269.331395 918.480365 C 1269.289867 904.044524 1269.414452 889.629425 1269.289867 875.214325 Z M 1269.289867 875.214325 " transform="matrix(0.188125,0,0,0.188333,0,0)"/>
<path style=" stroke:none;fill-rule:nonzero;fill:rgb(0%,0%,0%);fill-opacity:1;" d="M 305.101562 99.097656 L 316.882812 99.09375 L 318.691406 162.550781 L 303.511719 162.550781 Z M 305.101562 99.097656 "/>
<path style=" stroke:none;fill-rule:nonzero;fill:rgb(0%,0%,0%);fill-opacity:1;" d="M 277.449219 99.09375 L 289.246094 99.105469 L 291.058594 162.554688 L 275.859375 162.527344 Z M 277.449219 99.09375 "/>
<path style=" stroke:none;fill-rule:nonzero;fill:url(#linear0);" d="M 292.875 156.265625 L 292.800781 164.070312 L 297.371094 167.066406 L 297.46875 156.539062 C 295.8125 156.542969 294.285156 156.449219 292.875 156.265625 Z M 292.875 156.265625 "/>
<path style=" stroke:none;fill-rule:nonzero;fill:url(#linear1);" d="M 308.253906 138.546875 C 308.179688 138.480469 308.101562 138.414062 308.019531 138.347656 C 307.996094 138.328125 307.96875 138.304688 307.941406 138.285156 C 307.882812 138.238281 307.824219 138.195312 307.765625 138.148438 C 307.734375 138.125 307.699219 138.097656 307.664062 138.074219 C 307.605469 138.03125 307.542969 137.988281 307.480469 137.945312 C 307.445312 137.921875 307.410156 137.898438 307.375 137.875 C 306.617188 137.371094 305.636719 136.871094 304.433594 136.375 C 305.195312 137.394531 305.570312 138.632812 305.558594 140.089844 C 305.539062 142.289062 304.734375 144.179688 303.144531 145.769531 C 302.511719 146.402344 301.769531 146.972656 300.917969 147.480469 L 300.871094 152.363281 C 303.839844 151.554688 306.117188 150.351562 307.710938 148.765625 C 309.300781 147.175781 310.105469 145.28125 310.125 143.085938 C 310.144531 141.210938 309.519531 139.699219 308.253906 138.546875 Z M 308.253906 138.546875 "/>
<path style=" stroke:none;fill-rule:nonzero;fill:url(#linear2);" d="M 291.566406 151.777344 C 291.625 151.820312 291.691406 151.859375 291.757812 151.894531 C 291.78125 151.910156 291.804688 151.921875 291.828125 151.9375 C 291.878906 151.964844 291.933594 151.992188 291.988281 152.019531 C 292.015625 152.035156 292.042969 152.050781 292.070312 152.0625 C 292.128906 152.089844 292.1875 152.121094 292.246094 152.148438 C 292.273438 152.160156 292.300781 152.171875 292.328125 152.183594 C 292.414062 152.222656 292.507812 152.261719 292.601562 152.300781 C 293.933594 152.832031 295.566406 153.011719 297.503906 152.832031 L 292.933594 149.839844 C 292.210938 149.90625 291.527344 149.921875 290.890625 149.890625 C 290.707031 150.1875 290.613281 150.351562 290.613281 150.375 C 290.609375 150.894531 290.925781 151.363281 291.566406 151.777344 Z M 291.566406 151.777344 "/>
<path style=" stroke:none;fill-rule:nonzero;fill:url(#linear3);" d="M 297.675781 134.066406 C 296.003906 133.582031 294.480469 133.039062 293.097656 132.4375 L 292.933594 149.839844 L 297.503906 152.832031 Z M 297.675781 134.066406 "/>
<path style=" stroke:none;fill-rule:nonzero;fill:url(#linear4);" d="M 301.804688 121.773438 C 301.867188 121.792969 301.929688 121.8125 301.992188 121.832031 C 302.152344 121.882812 302.3125 121.933594 302.46875 121.984375 C 302.527344 122.003906 302.585938 122.023438 302.640625 122.042969 C 302.847656 122.109375 303.054688 122.179688 303.257812 122.25 C 303.28125 122.257812 303.308594 122.265625 303.335938 122.277344 C 303.511719 122.335938 303.6875 122.398438 303.863281 122.460938 C 303.921875 122.484375 303.980469 122.503906 304.039062 122.527344 C 304.191406 122.582031 304.34375 122.636719 304.492188 122.695312 C 304.539062 122.710938 304.589844 122.730469 304.636719 122.75 C 304.828125 122.820312 305.019531 122.894531 305.207031 122.96875 C 305.242188 122.984375 305.28125 123 305.316406 123.015625 C 305.46875 123.074219 305.621094 123.136719 305.769531 123.199219 C 305.824219 123.222656 305.878906 123.242188 305.933594 123.265625 C 306.082031 123.328125 306.226562 123.390625 306.371094 123.453125 C 306.40625 123.46875 306.445312 123.484375 306.484375 123.5 C 306.660156 123.578125 306.835938 123.65625 307.007812 123.734375 C 307.050781 123.753906 307.089844 123.773438 307.132812 123.792969 C 307.265625 123.855469 307.398438 123.917969 307.53125 123.980469 C 307.582031 124.003906 307.632812 124.03125 307.679688 124.054688 C 307.824219 124.125 307.96875 124.195312 308.109375 124.265625 C 308.132812 124.277344 308.15625 124.289062 308.179688 124.300781 C 308.34375 124.382812 308.503906 124.464844 308.660156 124.550781 C 308.703125 124.574219 308.746094 124.59375 308.789062 124.617188 C 308.90625 124.683594 309.027344 124.746094 309.144531 124.8125 C 309.1875 124.835938 309.234375 124.863281 309.277344 124.886719 C 309.425781 124.96875 309.570312 125.054688 309.714844 125.136719 C 309.71875 125.140625 309.722656 125.144531 309.730469 125.148438 C 309.878906 125.234375 310.023438 125.324219 310.164062 125.410156 C 310.207031 125.4375 310.246094 125.460938 310.289062 125.488281 C 310.394531 125.554688 310.503906 125.621094 310.605469 125.691406 C 310.632812 125.707031 310.65625 125.722656 310.683594 125.738281 L 306.117188 122.746094 C 304.703125 121.820312 303.054688 120.96875 301.171875 120.191406 L 301.160156 121.574219 C 301.378906 121.640625 301.59375 121.707031 301.804688 121.773438 Z M 301.804688 121.773438 "/>
<path style=" stroke:none;fill-rule:nonzero;fill:url(#linear5);" d="M 284.941406 153.429688 C 284.871094 153.375 284.800781 153.324219 284.734375 153.269531 C 284.65625 153.207031 284.582031 153.148438 284.507812 153.085938 C 284.441406 153.03125 284.378906 152.972656 284.316406 152.917969 C 284.246094 152.855469 284.175781 152.789062 284.105469 152.726562 C 284.046875 152.667969 283.988281 152.609375 283.929688 152.550781 C 283.863281 152.484375 283.796875 152.417969 283.734375 152.351562 C 283.679688 152.292969 283.625 152.230469 283.570312 152.171875 C 283.511719 152.101562 283.453125 152.03125 283.394531 151.960938 C 283.347656 151.902344 283.296875 151.839844 283.246094 151.773438 C 283.191406 151.703125 283.140625 151.632812 283.089844 151.558594 C 283.042969 151.496094 282.996094 151.429688 282.953125 151.363281 C 282.90625 151.289062 282.859375 151.214844 282.8125 151.140625 C 282.769531 151.074219 282.730469 151.007812 282.691406 150.941406 C 282.648438 150.863281 282.605469 150.785156 282.566406 150.703125 C 282.53125 150.636719 282.496094 150.570312 282.460938 150.5 C 282.421875 150.417969 282.386719 150.335938 282.351562 150.253906 C 282.324219 150.183594 282.292969 150.117188 282.261719 150.046875 C 282.230469 149.960938 282.199219 149.875 282.167969 149.789062 C 282.144531 149.71875 282.117188 149.648438 282.097656 149.578125 C 282.066406 149.488281 282.042969 149.398438 282.019531 149.308594 C 282 149.234375 281.976562 149.164062 281.960938 149.09375 C 281.9375 149 281.917969 148.902344 281.898438 148.808594 C 281.882812 148.734375 281.867188 148.664062 281.855469 148.59375 C 281.835938 148.492188 281.824219 148.386719 281.808594 148.285156 C 281.800781 148.214844 281.789062 148.148438 281.78125 148.078125 C 281.769531 147.964844 281.761719 147.84375 281.753906 147.726562 C 281.75 147.667969 281.742188 147.609375 281.738281 147.550781 C 281.730469 147.371094 281.726562 147.191406 281.726562 147.007812 C 281.746094 145.261719 282.246094 143.796875 283.238281 142.621094 C 284.226562 141.441406 285.523438 140.769531 287.125 140.601562 C 287.230469 140.589844 287.332031 140.582031 287.4375 140.574219 C 287.46875 140.574219 287.503906 140.570312 287.535156 140.570312 C 287.605469 140.566406 287.671875 140.558594 287.738281 140.558594 C 287.78125 140.554688 287.816406 140.554688 287.855469 140.554688 C 287.917969 140.554688 287.976562 140.550781 288.035156 140.550781 C 288.078125 140.550781 288.117188 140.550781 288.15625 140.550781 C 288.214844 140.554688 288.269531 140.554688 288.324219 140.554688 C 288.367188 140.558594 288.40625 140.558594 288.445312 140.5625 C 288.5 140.5625 288.554688 140.566406 288.605469 140.570312 C 288.648438 140.574219 288.6875 140.578125 288.722656 140.582031 C 288.777344 140.585938 288.828125 140.589844 288.882812 140.597656 C 288.917969 140.601562 288.957031 140.605469 288.992188 140.609375 C 289.046875 140.617188 289.101562 140.625 289.152344 140.632812 C 289.1875 140.640625 289.222656 140.644531 289.253906 140.652344 C 289.3125 140.660156 289.367188 140.671875 289.421875 140.683594 C 289.449219 140.691406 289.480469 140.695312 289.507812 140.703125 C 289.582031 140.71875 289.65625 140.738281 289.730469 140.757812 C 289.738281 140.761719 289.746094 140.761719 289.753906 140.765625 C 289.832031 140.785156 289.914062 140.8125 289.988281 140.835938 C 290.015625 140.84375 290.039062 140.855469 290.0625 140.863281 C 290.113281 140.882812 290.167969 140.902344 290.21875 140.921875 C 290.246094 140.933594 290.277344 140.945312 290.304688 140.957031 C 290.351562 140.976562 290.394531 140.996094 290.4375 141.015625 C 290.46875 141.03125 290.5 141.042969 290.527344 141.058594 C 290.570312 141.078125 290.613281 141.097656 290.652344 141.121094 C 290.683594 141.136719 290.710938 141.152344 290.742188 141.167969 C 290.78125 141.191406 290.820312 141.214844 290.859375 141.238281 C 290.886719 141.253906 290.914062 141.273438 290.945312 141.289062 C 290.960938 141.300781 290.976562 141.308594 290.992188 141.320312 L 286.425781 138.324219 C 285.4375 137.679688 284.148438 137.441406 282.558594 137.609375 C 280.957031 137.777344 279.660156 138.449219 278.671875 139.625 C 277.679688 140.804688 277.175781 142.265625 277.160156 144.011719 C 277.132812 146.890625 278.390625 149.164062 280.929688 150.828125 L 285.496094 153.820312 C 285.464844 153.800781 285.4375 153.777344 285.40625 153.757812 C 285.332031 153.707031 285.257812 153.65625 285.183594 153.605469 C 285.101562 153.546875 285.019531 153.488281 284.941406 153.429688 Z M 284.941406 153.429688 "/>
<path style=" stroke:none;fill-rule:nonzero;fill:url(#linear6);" d="M 308.273438 106.246094 C 308.269531 106.230469 308.265625 106.214844 308.265625 106.199219 C 308.257812 106.152344 308.246094 106.105469 308.234375 106.0625 C 308.230469 106.050781 308.226562 106.039062 308.222656 106.023438 C 308.207031 105.96875 308.183594 105.917969 308.160156 105.863281 C 308.152344 105.851562 308.148438 105.839844 308.140625 105.824219 C 308.121094 105.78125 308.09375 105.742188 308.070312 105.699219 C 308.058594 105.683594 308.050781 105.667969 308.039062 105.65625 C 308.003906 105.601562 307.96875 105.550781 307.921875 105.5 C 307.921875 105.5 307.917969 105.496094 307.917969 105.496094 C 307.875 105.445312 307.828125 105.398438 307.78125 105.351562 C 307.765625 105.335938 307.75 105.324219 307.734375 105.308594 C 307.691406 105.269531 307.644531 105.230469 307.597656 105.191406 C 307.585938 105.183594 307.574219 105.171875 307.5625 105.164062 C 307.5 105.117188 307.433594 105.070312 307.367188 105.023438 C 307.097656 104.847656 306.773438 104.679688 306.386719 104.523438 C 305.480469 104.15625 304.453125 103.972656 303.300781 103.960938 C 303.261719 104 303.21875 104.039062 303.171875 104.082031 C 302.21875 105.03125 301.59375 105.976562 301.296875 106.917969 L 301.269531 109.769531 C 301.480469 110.625 301.890625 111.320312 302.492188 111.859375 C 302.640625 111.996094 302.800781 112.117188 302.964844 112.226562 L 307.53125 115.21875 C 307.519531 115.210938 307.507812 115.199219 307.492188 115.191406 C 307.441406 115.15625 307.386719 115.117188 307.335938 115.078125 C 307.3125 115.0625 307.292969 115.046875 307.269531 115.027344 C 307.199219 114.972656 307.128906 114.914062 307.058594 114.855469 C 306.113281 114.007812 305.644531 112.773438 305.660156 111.148438 C 305.671875 109.800781 306.367188 108.441406 307.738281 107.074219 C 308.101562 106.738281 308.28125 106.519531 308.285156 106.417969 C 308.285156 106.359375 308.277344 106.300781 308.273438 106.246094 Z M 308.273438 106.246094 "/>
<path style=" stroke:none;fill-rule:nonzero;fill:url(#linear7);" d="M 290.84375 116.859375 C 291.0625 117.15625 291.304688 117.4375 291.582031 117.699219 C 291.898438 118 292.261719 118.285156 292.671875 118.550781 C 292.699219 118.566406 292.726562 118.585938 292.75 118.601562 C 292.824219 118.644531 292.894531 118.691406 292.96875 118.734375 C 293 118.753906 293.035156 118.773438 293.066406 118.792969 C 293.144531 118.839844 293.226562 118.882812 293.308594 118.929688 C 293.332031 118.941406 293.355469 118.957031 293.378906 118.96875 C 293.484375 119.027344 293.59375 119.082031 293.703125 119.136719 C 293.730469 119.152344 293.757812 119.164062 293.785156 119.175781 C 293.871094 119.21875 293.960938 119.261719 294.050781 119.304688 C 294.085938 119.320312 294.125 119.335938 294.164062 119.355469 C 294.25 119.394531 294.339844 119.433594 294.433594 119.472656 C 294.464844 119.488281 294.496094 119.5 294.527344 119.515625 C 294.652344 119.566406 294.773438 119.617188 294.902344 119.664062 C 294.925781 119.675781 294.953125 119.683594 294.976562 119.695312 C 295.082031 119.734375 295.1875 119.773438 295.296875 119.8125 C 295.339844 119.828125 295.382812 119.84375 295.425781 119.859375 C 295.523438 119.890625 295.625 119.925781 295.726562 119.960938 C 295.765625 119.972656 295.804688 119.988281 295.84375 120 C 295.984375 120.046875 296.125 120.089844 296.269531 120.132812 C 296.285156 120.140625 296.304688 120.144531 296.324219 120.148438 C 296.449219 120.1875 296.582031 120.226562 296.710938 120.261719 C 296.757812 120.277344 296.804688 120.289062 296.851562 120.300781 C 296.964844 120.332031 297.074219 120.363281 297.1875 120.390625 C 297.234375 120.402344 297.28125 120.414062 297.328125 120.425781 C 297.484375 120.46875 297.640625 120.507812 297.800781 120.542969 L 293.234375 117.550781 C 292.367188 117.34375 291.570312 117.113281 290.84375 116.859375 Z M 290.84375 116.859375 "/>
<path style=" stroke:none;fill-rule:nonzero;fill:url(#linear8);" d="M 312.167969 102.734375 C 312.269531 102.800781 312.375 102.863281 312.472656 102.929688 L 307.90625 99.9375 C 307.808594 99.871094 307.703125 99.804688 307.597656 99.742188 C 305.847656 98.664062 303.773438 97.980469 301.382812 97.683594 L 301.355469 100.5625 C 305.773438 100.296875 309.378906 101.019531 312.167969 102.734375 Z M 312.167969 102.734375 "/>
<path style=" stroke:none;fill-rule:nonzero;fill:url(#linear9);" d="M 297.800781 120.542969 L 297.949219 104.699219 C 296.128906 105.117188 294.589844 105.742188 293.335938 106.566406 L 293.234375 117.550781 Z M 297.800781 120.542969 "/>
<path style=" stroke:none;fill-rule:nonzero;fill:url(#linear10);" d="M 298.03125 96.011719 L 293.464844 93.015625 L 293.414062 98.148438 L 297.984375 101.140625 Z M 298.03125 96.011719 "/>
<path style=" stroke:none;fill-rule:nonzero;fill:url(#linear11);" d="M 301.398438 95.65625 L 296.832031 92.660156 L 293.464844 93.015625 L 298.03125 96.011719 Z M 301.398438 95.65625 "/>
<path style=" stroke:none;fill-rule:nonzero;fill:url(#linear12);" d="M 313.703125 128.1875 C 312.839844 127.304688 311.808594 126.472656 310.605469 125.691406 C 310.503906 125.621094 310.394531 125.554688 310.289062 125.488281 C 310.246094 125.460938 310.207031 125.4375 310.164062 125.410156 C 310.023438 125.320312 309.878906 125.234375 309.730469 125.148438 C 309.722656 125.144531 309.71875 125.140625 309.714844 125.136719 C 309.570312 125.054688 309.425781 124.96875 309.277344 124.886719 C 309.234375 124.863281 309.1875 124.835938 309.144531 124.8125 C 309.027344 124.746094 308.90625 124.683594 308.789062 124.617188 C 308.746094 124.59375 308.703125 124.574219 308.660156 124.550781 C 308.503906 124.464844 308.34375 124.382812 308.179688 124.300781 C 308.15625 124.289062 308.132812 124.277344 308.109375 124.265625 C 307.96875 124.195312 307.824219 124.125 307.679688 124.054688 C 307.632812 124.027344 307.582031 124.003906 307.53125 123.980469 C 307.398438 123.917969 307.265625 123.855469 307.132812 123.792969 C 307.089844 123.773438 307.050781 123.753906 307.007812 123.734375 C 306.835938 123.65625 306.660156 123.578125 306.484375 123.5 C 306.445312 123.484375 306.410156 123.46875 306.371094 123.453125 C 306.226562 123.390625 306.082031 123.328125 305.933594 123.265625 C 305.878906 123.242188 305.824219 123.21875 305.769531 123.199219 C 305.621094 123.136719 305.46875 123.074219 305.316406 123.015625 C 305.28125 123 305.242188 122.984375 305.207031 122.96875 C 305.019531 122.894531 304.828125 122.820312 304.636719 122.75 C 304.589844 122.730469 304.539062 122.710938 304.492188 122.695312 C 304.34375 122.636719 304.191406 122.582031 304.039062 122.527344 C 303.980469 122.503906 303.921875 122.484375 303.863281 122.460938 C 303.6875 122.398438 303.511719 122.335938 303.335938 122.277344 C 303.308594 122.265625 303.28125 122.257812 303.257812 122.25 C 303.054688 122.179688 302.847656 122.109375 302.640625 122.042969 C 302.585938 122.023438 302.527344 122.003906 302.46875 121.984375 C 302.3125 121.933594 302.152344 121.882812 301.992188 121.832031 C 301.929688 121.8125 301.867188 121.792969 301.804688 121.773438 C 301.59375 121.707031 301.378906 121.640625 301.160156 121.574219 L 301.171875 120.191406 L 301.269531 109.769531 L 301.296875 106.917969 L 301.320312 104.082031 L 301.824219 104.03125 C 302.335938 103.976562 302.828125 103.953125 303.300781 103.960938 C 304.453125 103.972656 305.480469 104.15625 306.386719 104.523438 C 306.769531 104.679688 307.097656 104.847656 307.367188 105.023438 C 307.433594 105.070312 307.5 105.117188 307.5625 105.164062 C 307.574219 105.171875 307.585938 105.183594 307.597656 105.191406 C 307.644531 105.230469 307.691406 105.269531 307.734375 105.308594 C 307.75 105.324219 307.765625 105.335938 307.78125 105.351562 C 307.828125 105.398438 307.875 105.445312 307.917969 105.496094 C 307.917969 105.496094 307.921875 105.5 307.921875 105.5 C 307.964844 105.550781 308.003906 105.601562 308.039062 105.65625 C 308.050781 105.667969 308.058594 105.683594 308.070312 105.699219 C 308.09375 105.742188 308.121094 105.78125 308.140625 105.824219 C 308.148438 105.839844 308.152344 105.851562 308.160156 105.863281 C 308.183594 105.914062 308.207031 105.96875 308.222656 106.023438 C 308.226562 106.039062 308.230469 106.050781 308.234375 106.0625 C 308.246094 106.105469 308.257812 106.152344 308.265625 106.199219 C 308.265625 106.214844 308.269531 106.230469 308.269531 106.246094 C 308.277344 106.300781 308.285156 106.359375 308.28125 106.417969 C 308.28125 106.519531 308.101562 106.738281 307.738281 107.074219 C 306.363281 108.441406 305.671875 109.800781 305.660156 111.148438 C 305.644531 112.773438 306.109375 114.007812 307.058594 114.855469 C 307.125 114.914062 307.195312 114.972656 307.269531 115.027344 C 307.289062 115.046875 307.3125 115.0625 307.335938 115.078125 C 307.386719 115.117188 307.4375 115.15625 307.492188 115.191406 C 308.382812 115.789062 309.511719 116.019531 310.878906 115.875 C 312.503906 115.703125 313.8125 115.054688 314.800781 113.929688 C 315.789062 112.800781 316.292969 111.375 316.308594 109.652344 C 316.335938 106.757812 314.957031 104.449219 312.164062 102.734375 C 309.378906 101.023438 305.773438 100.296875 301.355469 100.5625 L 301.378906 97.683594 L 301.398438 95.65625 L 298.03125 96.011719 L 297.980469 101.140625 C 293.171875 102.222656 289.449219 104.234375 286.808594 107.183594 C 284.164062 110.128906 282.824219 113.761719 282.785156 118.082031 C 282.746094 122.078125 283.941406 125.371094 286.363281 127.960938 C 286.496094 128.105469 286.636719 128.246094 286.78125 128.386719 C 286.820312 128.425781 286.859375 128.460938 286.898438 128.5 C 287.023438 128.617188 287.148438 128.738281 287.277344 128.851562 C 287.304688 128.875 287.328125 128.898438 287.351562 128.921875 C 287.507812 129.054688 287.664062 129.1875 287.824219 129.320312 C 287.863281 129.355469 287.90625 129.386719 287.949219 129.417969 C 288.082031 129.527344 288.214844 129.632812 288.355469 129.734375 C 288.394531 129.765625 288.433594 129.796875 288.472656 129.828125 C 288.644531 129.953125 288.820312 130.078125 289 130.203125 C 289.035156 130.226562 289.074219 130.253906 289.113281 130.277344 C 290.273438 131.066406 291.601562 131.785156 293.097656 132.4375 C 294.480469 133.039062 296.003906 133.582031 297.675781 134.066406 L 297.5 152.832031 C 295.566406 153.011719 293.933594 152.832031 292.601562 152.300781 C 292.503906 152.261719 292.414062 152.222656 292.328125 152.183594 C 292.300781 152.171875 292.273438 152.160156 292.246094 152.148438 C 292.1875 152.117188 292.128906 152.089844 292.070312 152.0625 C 292.042969 152.050781 292.015625 152.035156 291.988281 152.019531 C 291.933594 151.992188 291.878906 151.964844 291.828125 151.9375 C 291.804688 151.921875 291.78125 151.910156 291.757812 151.894531 C 291.691406 151.859375 291.625 151.820312 291.566406 151.777344 C 290.925781 151.363281 290.609375 150.894531 290.613281 150.375 C 290.613281 150.351562 290.707031 150.1875 290.890625 149.890625 C 291.070312 149.59375 291.34375 149.160156 291.703125 148.59375 C 292.429688 147.457031 292.800781 146.316406 292.8125 145.167969 C 292.824219 143.570312 292.324219 142.363281 291.304688 141.546875 C 291.1875 141.453125 291.066406 141.371094 290.945312 141.289062 C 290.914062 141.273438 290.886719 141.253906 290.859375 141.238281 C 290.820312 141.214844 290.78125 141.191406 290.742188 141.167969 C 290.710938 141.152344 290.683594 141.136719 290.652344 141.121094 C 290.613281 141.097656 290.570312 141.078125 290.527344 141.058594 C 290.5 141.042969 290.46875 141.027344 290.4375 141.015625 C 290.394531 140.996094 290.351562 140.976562 290.304688 140.957031 C 290.277344 140.945312 290.246094 140.933594 290.21875 140.921875 C 290.167969 140.902344 290.113281 140.882812 290.0625 140.863281 C 290.039062 140.855469 290.015625 140.84375 289.988281 140.835938 C 289.910156 140.8125 289.832031 140.785156 289.753906 140.765625 C 289.746094 140.761719 289.738281 140.761719 289.730469 140.757812 C 289.65625 140.738281 289.582031 140.71875 289.507812 140.703125 C 289.480469 140.695312 289.449219 140.691406 289.421875 140.683594 C 289.367188 140.671875 289.3125 140.660156 289.253906 140.652344 C 289.222656 140.644531 289.1875 140.640625 289.152344 140.632812 C 289.101562 140.625 289.046875 140.617188 288.992188 140.609375 C 288.957031 140.605469 288.917969 140.601562 288.882812 140.597656 C 288.828125 140.589844 288.777344 140.585938 288.722656 140.578125 C 288.683594 140.578125 288.644531 140.574219 288.605469 140.570312 C 288.554688 140.566406 288.5 140.5625 288.445312 140.558594 C 288.40625 140.558594 288.367188 140.558594 288.324219 140.554688 C 288.269531 140.554688 288.214844 140.550781 288.15625 140.550781 C 288.117188 140.550781 288.078125 140.550781 288.035156 140.550781 C 287.976562 140.550781 287.917969 140.554688 287.855469 140.554688 C 287.816406 140.554688 287.777344 140.554688 287.738281 140.558594 C 287.671875 140.558594 287.605469 140.5625 287.535156 140.570312 C 287.503906 140.570312 287.46875 140.570312 287.4375 140.574219 C 287.332031 140.582031 287.230469 140.589844 287.125 140.601562 C 285.523438 140.769531 284.226562 141.441406 283.238281 142.621094 C 282.246094 143.796875 281.746094 145.257812 281.726562 147.007812 C 281.726562 147.191406 281.730469 147.371094 281.738281 147.550781 C 281.742188 147.609375 281.75 147.667969 281.753906 147.726562 C 281.761719 147.84375 281.769531 147.964844 281.78125 148.078125 C 281.789062 148.148438 281.800781 148.214844 281.808594 148.285156 C 281.824219 148.386719 281.835938 148.492188 281.855469 148.59375 C 281.867188 148.664062 281.882812 148.734375 281.898438 148.808594 C 281.917969 148.902344 281.9375 148.996094 281.960938 149.09375 C 281.976562 149.164062 282 149.234375 282.019531 149.308594 C 282.042969 149.398438 282.066406 149.488281 282.09375 149.578125 C 282.117188 149.648438 282.144531 149.71875 282.167969 149.789062 C 282.199219 149.875 282.230469 149.960938 282.261719 150.046875 C 282.292969 150.117188 282.320312 150.183594 282.351562 150.253906 C 282.386719 150.335938 282.421875 150.417969 282.460938 150.5 C 282.496094 150.570312 282.53125 150.636719 282.566406 150.703125 C 282.605469 150.785156 282.648438 150.863281 282.691406 150.941406 C 282.730469 151.007812 282.769531 151.074219 282.8125 151.140625 C 282.859375 151.214844 282.90625 151.289062 282.953125 151.363281 C 282.996094 151.429688 283.042969 151.496094 283.089844 151.558594 C 283.140625 151.632812 283.191406 151.703125 283.246094 151.773438 C 283.296875 151.839844 283.34375 151.898438 283.394531 151.960938 C 283.453125 152.03125 283.511719 152.101562 283.570312 152.171875 C 283.625 152.230469 283.679688 152.292969 283.734375 152.351562 C 283.796875 152.417969 283.863281 152.484375 283.929688 152.550781 C 283.984375 152.609375 284.046875 152.667969 284.105469 152.726562 C 284.175781 152.789062 284.242188 152.855469 284.316406 152.917969 C 284.378906 152.972656 284.441406 153.03125 284.507812 153.085938 C 284.582031 153.148438 284.65625 153.207031 284.734375 153.269531 C 284.800781 153.324219 284.871094 153.375 284.941406 153.429688 C 285.019531 153.488281 285.101562 153.546875 285.183594 153.605469 C 285.257812 153.65625 285.332031 153.707031 285.40625 153.757812 C 285.539062 153.847656 285.675781 153.9375 285.816406 154.023438 C 287.660156 155.148438 290.015625 155.894531 292.875 156.265625 C 294.285156 156.449219 295.8125 156.539062 297.46875 156.539062 L 297.371094 167.066406 L 300.738281 166.710938 L 300.835938 156.183594 C 306.074219 155.210938 310.164062 153.164062 313.105469 150.046875 C 316.046875 146.933594 317.539062 143.050781 317.582031 138.40625 C 317.621094 134.289062 316.328125 130.882812 313.703125 128.1875 Z M 291.871094 107.753906 C 292.304688 107.320312 292.796875 106.925781 293.335938 106.566406 C 294.589844 105.742188 296.128906 105.117188 297.949219 104.699219 L 297.800781 120.542969 C 297.640625 120.507812 297.484375 120.46875 297.328125 120.425781 C 297.28125 120.414062 297.234375 120.402344 297.1875 120.390625 C 297.074219 120.363281 296.960938 120.332031 296.851562 120.300781 C 296.804688 120.289062 296.757812 120.277344 296.710938 120.261719 C 296.582031 120.226562 296.449219 120.1875 296.324219 120.148438 C 296.304688 120.144531 296.285156 120.140625 296.269531 120.132812 C 296.125 120.089844 295.984375 120.046875 295.84375 120 C 295.804688 119.988281 295.765625 119.972656 295.726562 119.960938 C 295.625 119.925781 295.523438 119.890625 295.425781 119.855469 C 295.382812 119.84375 295.339844 119.828125 295.296875 119.8125 C 295.1875 119.773438 295.082031 119.734375 294.976562 119.695312 C 294.953125 119.683594 294.925781 119.675781 294.902344 119.664062 C 294.773438 119.617188 294.652344 119.566406 294.527344 119.515625 C 294.496094 119.5 294.464844 119.488281 294.433594 119.472656 C 294.339844 119.433594 294.25 119.394531 294.164062 119.355469 C 294.125 119.335938 294.085938 119.320312 294.050781 119.304688 C 293.960938 119.261719 293.871094 119.21875 293.785156 119.175781 C 293.757812 119.164062 293.730469 119.152344 293.703125 119.136719 C 293.59375 119.082031 293.484375 119.027344 293.378906 118.96875 C 293.355469 118.957031 293.332031 118.941406 293.308594 118.929688 C 293.226562 118.882812 293.144531 118.839844 293.066406 118.792969 C 293.035156 118.773438 293 118.753906 292.96875 118.734375 C 292.894531 118.691406 292.820312 118.644531 292.75 118.601562 C 292.726562 118.582031 292.699219 118.566406 292.671875 118.550781 C 292.261719 118.285156 291.898438 118 291.578125 117.699219 C 291.304688 117.4375 291.058594 117.15625 290.84375 116.859375 C 290.050781 115.761719 289.660156 114.421875 289.675781 112.828125 C 289.691406 110.882812 290.421875 109.191406 291.871094 107.753906 Z M 307.710938 148.765625 C 306.121094 150.351562 303.839844 151.554688 300.871094 152.363281 L 300.917969 147.480469 L 301.03125 135.171875 C 302.316406 135.570312 303.449219 135.972656 304.433594 136.375 C 305.636719 136.871094 306.617188 137.367188 307.375 137.875 C 307.410156 137.898438 307.445312 137.921875 307.480469 137.945312 C 307.542969 137.988281 307.605469 138.03125 307.664062 138.074219 C 307.699219 138.097656 307.734375 138.125 307.765625 138.148438 C 307.824219 138.195312 307.882812 138.238281 307.941406 138.285156 C 307.96875 138.304688 307.996094 138.328125 308.019531 138.347656 C 308.101562 138.414062 308.179688 138.480469 308.253906 138.546875 C 309.519531 139.699219 310.144531 141.210938 310.125 143.082031 C 310.105469 145.28125 309.300781 147.175781 307.710938 148.765625 Z M 307.710938 148.765625 "/>
<path style=" stroke:none;fill-rule:nonzero;fill:url(#linear13);" d="M 288.472656 129.828125 C 288.433594 129.796875 288.394531 129.765625 288.355469 129.738281 C 288.214844 129.632812 288.082031 129.527344 287.949219 129.417969 C 287.90625 129.386719 287.867188 129.355469 287.824219 129.320312 C 287.664062 129.1875 287.507812 129.054688 287.355469 128.921875 C 287.328125 128.898438 287.304688 128.875 287.277344 128.851562 C 287.148438 128.738281 287.023438 128.617188 286.898438 128.5 C 286.859375 128.460938 286.820312 128.425781 286.78125 128.386719 C 286.640625 128.246094 286.5 128.105469 286.363281 127.960938 C 283.941406 125.371094 282.75 122.078125 282.785156 118.082031 C 282.824219 113.761719 284.164062 110.128906 286.808594 107.183594 C 289.449219 104.234375 293.175781 102.222656 297.984375 101.140625 L 293.414062 98.148438 C 288.605469 99.226562 284.882812 101.242188 282.242188 104.1875 C 279.597656 107.136719 278.257812 110.769531 278.21875 115.089844 C 278.179688 119.082031 279.375 122.375 281.796875 124.964844 C 282.640625 125.867188 283.644531 126.699219 284.816406 127.46875 L 289.382812 130.460938 C 289.289062 130.402344 289.203125 130.339844 289.113281 130.277344 C 289.074219 130.253906 289.035156 130.226562 289 130.203125 C 288.820312 130.078125 288.644531 129.953125 288.472656 129.828125 Z M 288.472656 129.828125 "/>
</g>
</svg>
